<svg width="244" height="36" viewBox="0 0 244 36" fill="none" xmlns="http://www.w3.org/2000/svg">
<path d="M162.012 35.49H225.912C228.233 35.49 230.53 35.0329 232.674 34.1449C234.818 33.2569 236.766 31.9554 238.407 30.3146C240.047 28.6738 241.349 26.7258 242.237 24.582C243.125 22.4382 243.582 20.1405 243.582 17.82C243.586 15.497 243.132 13.1961 242.246 11.0488C241.359 8.90148 240.058 6.95001 238.417 5.30602C236.776 3.66203 234.827 2.35778 232.681 1.46791C230.535 0.578034 228.235 0.119993 225.912 0.119997H162.012C159.689 0.119993 157.389 0.578034 155.243 1.46791C153.097 2.35778 151.148 3.66203 149.507 5.30602C147.866 6.95001 146.565 8.90148 145.678 11.0488C144.792 13.1961 144.338 15.497 144.342 17.82C144.342 22.5064 146.204 27.0008 149.517 30.3146C152.831 33.6283 157.326 35.49 162.012 35.49ZM23.0821 13.05L33.5821 35.42H44.5821L26.5821 -3.45707e-06H19.0821L0.582055 35.42H11.5821L23.0821 13.05ZM59.3021 0.239997H71.0021C73.726 0.244183 76.4393 0.579987 79.0821 1.24C81.4888 1.81094 83.7567 2.85822 85.7521 4.32C87.6819 5.77107 89.2354 7.66408 90.2821 9.84C91.4653 12.4251 92.0367 15.2482 91.9521 18.09C92.0063 20.708 91.4517 23.3028 90.3321 25.67C89.2896 27.8001 87.7948 29.6771 85.9521 31.17C84.0659 32.6823 81.9117 33.8256 79.6021 34.54C77.1609 35.3151 74.6133 35.7032 72.0521 35.69H59.3021V0.239997ZM67.1021 28.44H71.1021C72.7844 28.4515 74.4624 28.2669 76.1021 27.89C77.5651 27.593 78.9488 26.9898 80.1621 26.12C81.3201 25.2436 82.2413 24.0922 82.8421 22.77C83.5442 21.1706 83.8856 19.4362 83.8421 17.69C83.8718 16.1254 83.529 14.5761 82.8421 13.17C82.2184 11.9239 81.319 10.8364 80.2121 9.99C79.0617 9.13566 77.7632 8.50164 76.3821 8.12C74.8588 7.69406 73.2837 7.48203 71.7021 7.49H67.1021V28.44ZM103.252 0.239997H116.452C118.001 0.240752 119.548 0.351027 121.082 0.569997C122.537 0.758458 123.948 1.19834 125.252 1.87C126.47 2.50213 127.504 3.43928 128.252 4.59C129.082 5.9942 129.482 7.61089 129.402 9.24C129.471 11.0541 128.877 12.8312 127.732 14.24C126.563 15.5936 125.023 16.5741 123.302 17.06V17.12C124.409 17.2781 125.484 17.6159 126.482 18.12C127.404 18.583 128.234 19.2099 128.932 19.97C129.623 20.7312 130.157 21.6216 130.502 22.59C130.875 23.6154 131.061 24.6991 131.052 25.79C131.112 27.4331 130.695 29.0585 129.852 30.47C129.068 31.6987 128.006 32.7262 126.752 33.47C125.434 34.2612 123.99 34.8194 122.482 35.12C120.927 35.4533 119.342 35.6209 117.752 35.62H103.252V0.239997ZM111.052 14.39H116.702C117.301 14.3933 117.899 14.3261 118.482 14.19C119.04 14.0688 119.572 13.8487 120.052 13.54C120.521 13.2378 120.909 12.8259 121.182 12.34C121.475 11.7863 121.62 11.1662 121.602 10.54C121.634 9.90357 121.481 9.27146 121.162 8.72C120.852 8.24746 120.429 7.85922 119.932 7.59C119.375 7.31022 118.778 7.11796 118.162 7.02C117.552 6.90211 116.933 6.84185 116.312 6.84H111.012L111.052 14.39ZM111.052 29.04H118.052C118.668 29.0416 119.281 28.9746 119.882 28.84C120.479 28.7179 121.046 28.4801 121.552 28.14C122.057 27.807 122.477 27.3622 122.782 26.84C123.111 26.2438 123.273 25.5704 123.252 24.89C123.279 24.1722 123.06 23.4668 122.632 22.89C122.212 22.371 121.669 21.9653 121.052 21.71C120.411 21.443 119.739 21.2582 119.052 21.16C118.373 21.0636 117.688 21.0134 117.002 21.01H111.102L111.052 29.04Z" fill="url(#paint0_linear_1_3)"/>
<defs>
<linearGradient id="paint0_linear_1_3" x1="13.9999" y1="18.9997" x2="253.42" y2="17.7597" gradientUnits="userSpaceOnUse">
<stop stop-color="#F5BF02"/>
<stop offset="0.56" stop-color="#1EA373"/>
<stop offset="1" stop-color="#4D54F3"/>
</linearGradient>
</defs>
</svg>
